<svg width="800" height="800" viewBox="0 0 1024 1024" class="icon" xmlns="http://www.w3.org/2000/svg"><path d="M1023.944 511.972c0 282.793-229.235 512.028-511.948 512.028C229.236 1024 0 794.765 0 511.972 0 229.243 229.235.008 511.996.008c282.713 0 511.948 229.235 511.948 511.964z" fill="#0092D2"/><path d="M1023.944 512.036C1023.944 229.243 794.709.008 511.996.008 229.236.008 0 229.243 0 512.036" fill="#38AFE0"/><path d="M511.996 1024C229.236 1024 0 794.765 0 511.972 0 229.243 229.235.008 511.996.008" fill="#36B3DD"/><path d="M511.964 1024c-103.138 0-186.71-229.235-186.71-512.028 0-282.729 83.572-511.964 186.71-511.964 103.09 0 186.726 229.235 186.726 511.964 0 282.793-83.636 512.028-186.726 512.028z" fill="#2AA8D8"/><path d="M0 512.004v.032h511.996V.008a510.34 510.34 0 0 0-199.285 40.246C128.953 117.962 0 299.928 0 512.004z" fill="#3FC6EA"/><path d="M698.69 511.972C698.69 229.243 615.054.008 511.964.008h-.032C408.826.04 325.254 229.243 325.254 511.972v.064H698.69v-.064z" fill="#42B8E4"/></svg>